<?xml version="1.0" standalone="no"?>
<svg xmlns:xlink="http://www.w3.org/1999/xlink" id="wave" style="transform:rotate(0deg); transition: 0.3s" viewBox="0 0 1440 210" version="1.1" xmlns="http://www.w3.org/2000/svg"><defs><linearGradient id="sw-gradient-0" x1="0" x2="0" y1="1" y2="0"><stop stop-color="rgba(80, 135, 206, 1)" offset="0%"/><stop stop-color="rgba(80, 135, 206, 1)" offset="100%"/></linearGradient></defs><path style="transform:translate(0, 0px); opacity:1" fill="url(#sw-gradient-0)" d="M0,42L26.7,63C53.3,84,107,126,160,147C213.3,168,267,168,320,150.5C373.3,133,427,98,480,73.5C533.3,49,587,35,640,56C693.3,77,747,133,800,161C853.3,189,907,189,960,185.5C1013.3,182,1067,175,1120,157.5C1173.3,140,1227,112,1280,105C1333.3,98,1387,112,1440,98C1493.3,84,1547,42,1600,21C1653.3,0,1707,0,1760,31.5C1813.3,63,1867,126,1920,143.5C1973.3,161,2027,133,2080,126C2133.3,119,2187,133,2240,119C2293.3,105,2347,63,2400,56C2453.3,49,2507,77,2560,101.5C2613.3,126,2667,147,2720,157.5C2773.3,168,2827,168,2880,171.5C2933.3,175,2987,182,3040,182C3093.3,182,3147,175,3200,150.5C3253.3,126,3307,84,3360,63C3413.3,42,3467,42,3520,56C3573.3,70,3627,98,3680,98C3733.3,98,3787,70,3813,56L3840,42L3840,210L3813.3,210C3786.7,210,3733,210,3680,210C3626.7,210,3573,210,3520,210C3466.7,210,3413,210,3360,210C3306.7,210,3253,210,3200,210C3146.7,210,3093,210,3040,210C2986.7,210,2933,210,2880,210C2826.7,210,2773,210,2720,210C2666.7,210,2613,210,2560,210C2506.7,210,2453,210,2400,210C2346.7,210,2293,210,2240,210C2186.7,210,2133,210,2080,210C2026.7,210,1973,210,1920,210C1866.7,210,1813,210,1760,210C1706.7,210,1653,210,1600,210C1546.7,210,1493,210,1440,210C1386.7,210,1333,210,1280,210C1226.7,210,1173,210,1120,210C1066.7,210,1013,210,960,210C906.7,210,853,210,800,210C746.7,210,693,210,640,210C586.7,210,533,210,480,210C426.7,210,373,210,320,210C266.7,210,213,210,160,210C106.7,210,53,210,27,210L0,210Z"/></svg>