<?xml version="1.0" standalone="no"?>
<svg xmlns:xlink="http://www.w3.org/1999/xlink" id="wave" style="transform:rotate(0deg); transition: 0.3s" viewBox="0 0 1440 150" version="1.1" xmlns="http://www.w3.org/2000/svg"><defs><linearGradient id="sw-gradient-0" x1="0" x2="0" y1="1" y2="0"><stop stop-color="rgba(25.908, 27.153, 85.522, 1)" offset="0%"/><stop stop-color="rgba(11, 255, 254.173, 1)" offset="100%"/></linearGradient></defs><path style="transform:translate(0, 0px); opacity:1" fill="url(#sw-gradient-0)" d="M0,60L34.3,65C68.6,70,137,80,206,87.5C274.3,95,343,100,411,95C480,90,549,75,617,62.5C685.7,50,754,40,823,47.5C891.4,55,960,80,1029,90C1097.1,100,1166,95,1234,82.5C1302.9,70,1371,50,1440,47.5C1508.6,45,1577,60,1646,60C1714.3,60,1783,45,1851,32.5C1920,20,1989,10,2057,10C2125.7,10,2194,20,2263,37.5C2331.4,55,2400,80,2469,85C2537.1,90,2606,75,2674,70C2742.9,65,2811,70,2880,60C2948.6,50,3017,25,3086,35C3154.3,45,3223,90,3291,95C3360,100,3429,65,3497,47.5C3565.7,30,3634,30,3703,40C3771.4,50,3840,70,3909,72.5C3977.1,75,4046,60,4114,55C4182.9,50,4251,55,4320,50C4388.6,45,4457,30,4526,42.5C4594.3,55,4663,95,4731,112.5C4800,130,4869,125,4903,122.5L4937.1,120L4937.1,150L4902.9,150C4868.6,150,4800,150,4731,150C4662.9,150,4594,150,4526,150C4457.1,150,4389,150,4320,150C4251.4,150,4183,150,4114,150C4045.7,150,3977,150,3909,150C3840,150,3771,150,3703,150C3634.3,150,3566,150,3497,150C3428.6,150,3360,150,3291,150C3222.9,150,3154,150,3086,150C3017.1,150,2949,150,2880,150C2811.4,150,2743,150,2674,150C2605.7,150,2537,150,2469,150C2400,150,2331,150,2263,150C2194.3,150,2126,150,2057,150C1988.6,150,1920,150,1851,150C1782.9,150,1714,150,1646,150C1577.1,150,1509,150,1440,150C1371.4,150,1303,150,1234,150C1165.7,150,1097,150,1029,150C960,150,891,150,823,150C754.3,150,686,150,617,150C548.6,150,480,150,411,150C342.9,150,274,150,206,150C137.1,150,69,150,34,150L0,150Z"/></svg>